HIERARCHY
ROOT hip
{
	OFFSET 0.000000 0.000000 0.000000
	CHANNELS 6 Xposition Yposition Zposition Xrotation Yrotation Zrotation
	JOINT mSpine1
	{
		OFFSET 0.0000 3.3100 -0.0000
		CHANNELS 3 Xrotation Yrotation Zrotation
		JOINT mSpine2
		{
			OFFSET 0.0000 -3.3100 0.0000
			CHANNELS 3 Xrotation Yrotation Zrotation
			JOINT abdomen
			{
				OFFSET 0.0000 3.3100 -0.0000
				CHANNELS 3 Xrotation Yrotation Zrotation
				JOINT mSpine3
				{
					OFFSET 0.0000 8.0660 -0.6050
					CHANNELS 3 Xrotation Yrotation Zrotation
					JOINT mSpine4
					{
						OFFSET 0.0000 -8.0660 0.6050
						CHANNELS 3 Xrotation Yrotation Zrotation
						JOINT chest
						{
							OFFSET 0.0000 8.0660 -0.6050
							CHANNELS 3 Xrotation Yrotation Zrotation
							JOINT neck
							{
								OFFSET 0.0000 9.8861 -0.3705
								CHANNELS 3 Xrotation Yrotation Zrotation
								JOINT head
								{
									OFFSET 0.0000 2.9776 -0.0000
									CHANNELS 3 Xrotation Yrotation Zrotation
									JOINT mEyeRight
									{
										OFFSET -1.4203 2.8770 3.5859
										CHANNELS 3 Xrotation Yrotation Zrotation
										End Site
										{
											OFFSET 0.0000 0.0000 0.9843
										}
									}
									JOINT mEyeLeft
									{
										OFFSET 1.4203 2.8770 3.5857
										CHANNELS 3 Xrotation Yrotation Zrotation
										End Site
										{
											OFFSET 0.0000 0.0000 0.9843
										}
									}
									JOINT mFaceRoot
									{
										OFFSET 0.0000 1.6934 0.9104
										CHANNELS 3 Xrotation Yrotation Zrotation
										JOINT mFaceForeheadLeft
										{
											OFFSET 1.3035 3.0608 2.3307
											CHANNELS 3 Xrotation Yrotation Zrotation
											End Site
											{
												OFFSET 0.1575 0.7087 0.9449
											}
										}
										JOINT mFaceForeheadRight
										{
											OFFSET -1.3035 3.0608 2.3307
											CHANNELS 3 Xrotation Yrotation Zrotation
											End Site
											{
												OFFSET -0.1575 0.7087 0.9449
											}
										}
										JOINT mFaceEyebrowOuterLeft
										{
											OFFSET 1.9168 1.7290 2.3307
											CHANNELS 3 Xrotation Yrotation Zrotation
											End Site
											{
												OFFSET 0.5118 0.0000 0.9055
											}
										}
										JOINT mFaceEyebrowCenterLeft
										{
											OFFSET 1.6711 2.1467 2.5492
											CHANNELS 3 Xrotation Yrotation Zrotation
											End Site
											{
												OFFSET 0.0000 0.0000 1.0630
											}
										}
										JOINT mFaceEyebrowInnerLeft
										{
											OFFSET 0.9060 1.8578 2.7313
											CHANNELS 3 Xrotation Yrotation Zrotation
											End Site
											{
												OFFSET 0.0000 0.0000 1.0236
											}
										}
										JOINT mFaceEyebrowOuterRight
										{
											OFFSET -1.9168 1.7290 2.3307
											CHANNELS 3 Xrotation Yrotation Zrotation
											End Site
											{
												OFFSET -0.5118 0.0000 0.9055
											}
										}
										JOINT mFaceEyebrowCenterRight
										{
											OFFSET -1.6711 2.1467 2.5492
											CHANNELS 3 Xrotation Yrotation Zrotation
											End Site
											{
												OFFSET 0.0000 0.0000 1.0630
											}
										}
										JOINT mFaceEyebrowInnerRight
										{
											OFFSET -0.9060 1.8578 2.7313
											CHANNELS 3 Xrotation Yrotation Zrotation
											End Site
											{
												OFFSET 0.0000 0.0000 1.0236
											}
										}
										JOINT mFaceEyeLidUpperLeft
										{
											OFFSET 1.4156 1.1887 2.6585
											CHANNELS 3 Xrotation Yrotation Zrotation
											End Site
											{
												OFFSET 0.0000 0.1969 1.0630
											}
										}
										JOINT mFaceEyeLidLowerLeft
										{
											OFFSET 1.4156 1.1834 2.6585
											CHANNELS 3 Xrotation Yrotation Zrotation
											End Site
											{
												OFFSET 0.0000 -0.2756 0.9449
											}
										}
										JOINT mFaceEyeLidUpperRight
										{
											OFFSET -1.4156 1.1887 2.6585
											CHANNELS 3 Xrotation Yrotation Zrotation
											End Site
											{
												OFFSET 0.0000 0.1969 1.0630
											}
										}
										JOINT mFaceEyeLidLowerRight
										{
											OFFSET -1.4156 1.1834 2.6585
											CHANNELS 3 Xrotation Yrotation Zrotation
											End Site
											{
												OFFSET 0.0000 -0.2756 0.9449
											}
										}
										JOINT mFaceEar1Left
										{
											OFFSET 2.9795 0.0712 -0.0000
											CHANNELS 3 Xrotation Yrotation Zrotation
											JOINT mFaceEar2Left
											{
												OFFSET 0.7087 0.9842 -0.7480
												CHANNELS 3 Xrotation Yrotation Zrotation
												End Site
												{
													OFFSET 0.0000 1.2992 -0.0000
												}
											}
										}
										JOINT mFaceEar1Right
										{
											OFFSET -2.9795 0.0712 -0.0000
											CHANNELS 3 Xrotation Yrotation Zrotation
											JOINT mFaceEar2Right
											{
												OFFSET -0.7087 0.9842 -0.7480
												CHANNELS 3 Xrotation Yrotation Zrotation
												End Site
												{
													OFFSET 0.0000 1.2992 -0.0000
												}
											}
										}
										JOINT mFaceNoseLeft
										{
											OFFSET 0.5587 -0.1957 3.1319
											CHANNELS 3 Xrotation Yrotation Zrotation
											End Site
											{
												OFFSET 0.1575 0.0000 0.5906
											}
										}
										JOINT mFaceNoseCenter
										{
											OFFSET 0.0000 -0.0534 3.7146
											CHANNELS 3 Xrotation Yrotation Zrotation
											End Site
											{
												OFFSET 0.0000 0.0000 0.9843
											}
										}
										JOINT mFaceNoseRight
										{
											OFFSET -0.5587 -0.1957 3.1319
											CHANNELS 3 Xrotation Yrotation Zrotation
											End Site
											{
												OFFSET -0.1575 0.0000 0.5906
											}
										}
										JOINT mFaceCheekLowerLeft
										{
											OFFSET 1.2663 -1.1941 1.8209
											CHANNELS 3 Xrotation Yrotation Zrotation
											End Site
											{
												OFFSET 1.1811 0.0000 0.5118
											}
										}
										JOINT mFaceCheekUpperLeft
										{
											OFFSET 1.2663 -0.2313 2.5492
											CHANNELS 3 Xrotation Yrotation Zrotation
											End Site
											{
												OFFSET 0.5906 0.0000 0.8661
											}
										}
										JOINT mFaceCheekLowerRight
										{
											OFFSET -1.2663 -1.1941 1.8209
											CHANNELS 3 Xrotation Yrotation Zrotation
											End Site
											{
												OFFSET -1.1811 0.0000 0.5118
											}
										}
										JOINT mFaceCheekUpperRight
										{
											OFFSET -1.2663 -0.2313 2.5492
											CHANNELS 3 Xrotation Yrotation Zrotation
											End Site
											{
												OFFSET -0.5906 0.0000 0.8661
											}
										}
										JOINT mFaceJaw
										{
											OFFSET 0.0000 -0.5339 -0.0364
											CHANNELS 3 Xrotation Yrotation Zrotation
											JOINT mFaceChin
											{
												OFFSET 0.0000 -2.0212 2.5310
												CHANNELS 3 Xrotation Yrotation Zrotation
												End Site
												{
													OFFSET 0.0000 -0.7087 0.8268
												}
											}
											JOINT mFaceTeethLower
											{
												OFFSET 0.0000 -1.4869 0.7648
												CHANNELS 3 Xrotation Yrotation Zrotation
												JOINT mFaceLipLowerLeft
												{
													OFFSET 0.0000 0.0000 1.6388
													CHANNELS 3 Xrotation Yrotation Zrotation
													End Site
													{
														OFFSET 0.6693 0.1969 1.3386
													}
												}
												JOINT mFaceLipLowerRight
												{
													OFFSET 0.0000 0.0000 1.6388
													CHANNELS 3 Xrotation Yrotation Zrotation
													End Site
													{
														OFFSET -0.6693 0.1969 1.3386
													}
												}
												JOINT mFaceLipLowerCenter
												{
													OFFSET 0.0000 0.0000 1.6388
													CHANNELS 3 Xrotation Yrotation Zrotation
													End Site
													{
														OFFSET 0.0000 0.0787 1.5748
													}
												}
												JOINT mFaceTongueBase
												{
													OFFSET 0.0000 0.1821 1.4203
													CHANNELS 3 Xrotation Yrotation Zrotation
													JOINT mFaceTongueTip
													{
														OFFSET 0.0000 0.2549 0.8012
														CHANNELS 3 Xrotation Yrotation Zrotation
														End Site
														{
															OFFSET 0.0000 0.0000 0.3937
														}
													}
												}
											}
										}
										JOINT mFaceJawShaper
										{
											OFFSET 0.0000 0.0000 0.0000
											CHANNELS 3 Xrotation Yrotation Zrotation
											End Site
											{
												OFFSET 0.0000 -0.0000 -0.6693
											}
										}
										JOINT mFaceForeheadCenter
										{
											OFFSET 0.0000 2.3027 2.5237
											CHANNELS 3 Xrotation Yrotation Zrotation
											End Site
											{
												OFFSET 0.0000 0.0000 1.4173
											}
										}
										JOINT mFaceNoseBase
										{
											OFFSET 0.0000 -0.7047 3.4232
											CHANNELS 3 Xrotation Yrotation Zrotation
											End Site
											{
												OFFSET 0.0000 0.0000 0.5512
											}
										}
										JOINT mFaceTeethUpper
										{
											OFFSET 0.0000 -1.1478 0.7283
											CHANNELS 3 Xrotation Yrotation Zrotation
											JOINT mFaceLipUpperLeft
											{
												OFFSET 0.0000 -0.1478 1.6388
												CHANNELS 3 Xrotation Yrotation Zrotation
												End Site
												{
													OFFSET 0.5906 0.0000 1.6142
												}
											}
											JOINT mFaceLipUpperRight
											{
												OFFSET 0.0000 -0.1478 1.6388
												CHANNELS 3 Xrotation Yrotation Zrotation
												End Site
												{
													OFFSET -0.5906 0.0000 1.6142
												}
											}
											JOINT mFaceLipCornerLeft
											{
												OFFSET -0.6919 -0.3642 1.0197
												CHANNELS 3 Xrotation Yrotation Zrotation
												End Site
												{
													OFFSET 2.0079 0.0000 1.7717
												}
											}
											JOINT mFaceLipCornerRight
											{
												OFFSET 0.6919 -0.3642 1.0197
												CHANNELS 3 Xrotation Yrotation Zrotation
												End Site
												{
													OFFSET -2.0079 0.0000 1.7717
												}
											}
											JOINT mFaceLipUpperCenter
											{
												OFFSET 0.0000 -0.0964 1.6388
												CHANNELS 3 Xrotation Yrotation Zrotation
												End Site
												{
													OFFSET 0.0000 0.0787 1.6929
												}
											}
										}
										JOINT mFaceEyecornerInnerLeft
										{
											OFFSET 0.7135 1.1122 2.7313
											CHANNELS 3 Xrotation Yrotation Zrotation
											End Site
											{
												OFFSET 0.0000 0.0000 0.6299
											}
										}
										JOINT mFaceEyecornerInnerRight
										{
											OFFSET -0.7135 1.1122 2.7313
											CHANNELS 3 Xrotation Yrotation Zrotation
											End Site
											{
												OFFSET 0.0000 0.0000 0.6299
											}
										}
										JOINT mFaceNoseBridge
										{
											OFFSET 0.0000 0.7118 3.3140
											CHANNELS 3 Xrotation Yrotation Zrotation
											End Site
											{
												OFFSET 0.0000 0.3150 0.5906
											}
										}
									}
								}
							}
							JOINT lCollar
							{
								OFFSET 2.8220 6.5116 -0.8157
								CHANNELS 3 Xrotation Yrotation Zrotation
								JOINT lShldr
								{
									OFFSET 3.1102 0.0000 0.0000
									CHANNELS 3 Xrotation Yrotation Zrotation
									JOINT lForeArm
									{
										OFFSET 10.9354 0.0000 0.0000
										CHANNELS 3 Xrotation Yrotation Zrotation
										JOINT lHand
										{
											OFFSET 9.5165 0.0000 0.0000
											CHANNELS 3 Xrotation Yrotation Zrotation
											End Site
											{
												OFFSET 2.3622 0.0000 0.0000
											}
										}
									}
								}
							}
							JOINT rCollar
							{
								OFFSET -2.8346 6.5116 -0.8157
								CHANNELS 3 Xrotation Yrotation Zrotation
								JOINT rShldr
								{
									OFFSET -3.1267 0.0000 0.0000
									CHANNELS 3 Xrotation Yrotation Zrotation
									JOINT rForeArm
									{
										OFFSET -10.9354 0.0000 0.0000
										CHANNELS 3 Xrotation Yrotation Zrotation
										JOINT rHand
										{
											OFFSET -9.5236 0.0000 0.0000
											CHANNELS 3 Xrotation Yrotation Zrotation
											End Site
											{
												OFFSET -2.3622 0.0000 0.0000
											}
										}
									}
								}
							}
						}
					}
				}
			}
		}
	}
	JOINT rThigh
	{
		OFFSET -5.0711 -1.6176 1.3236
		CHANNELS 3 Xrotation Yrotation Zrotation
		JOINT rShin
		{
			OFFSET 1.9148 -19.3276 -0.0307
			CHANNELS 3 Xrotation Yrotation Zrotation
			JOINT rFoot
			{
				OFFSET 0.0000 -18.4446 -1.1366
				CHANNELS 3 Xrotation Yrotation Zrotation
				End Site
				{
					OFFSET 0.0000 -2.3873 4.4077
				}
			}
		}
	}
	JOINT lThigh
	{
		OFFSET 4.9907 -1.6141 1.3290
		CHANNELS 3 Xrotation Yrotation Zrotation
		JOINT lShin
		{
			OFFSET -1.7940 -19.3328 -0.0349
			CHANNELS 3 Xrotation Yrotation Zrotation
			JOINT lFoot
			{
				OFFSET 0.0543 -18.4428 -1.1373
				CHANNELS 3 Xrotation Yrotation Zrotation
				End Site
				{
					OFFSET 0.0000 -2.3866 4.4077
				}
			}
		}
	}
}
MOTION
Frames: 6
Frame Time: 0.041667
0.0000 42.0084 0.0000 0.0000 0.0000 0.0000 0.0000 0.0000 0.0000 0.0000 0.0000 0.0000 0.0000 0.0000 0.0000 0.0000 0.0000 0.0000 0.0000 0.0000 0.0000 0.0000 0.0000 0.0000 0.0000 0.0000 0.0000 0.0000 0.0000 0.0000 0.0000 0.0000 0.0000 0.0000 0.0000 0.0000 0.0000 0.0000 0.0000 0.0000 0.0000 0.0000 0.0000 0.0000 0.0000 0.0000 0.0000 0.0000 0.0000 0.0000 0.0000 0.0000 0.0000 0.0000 0.0000 0.0000 0.0000 0.0000 0.0000 0.0000 0.0000 0.0000 0.0000 0.0000 0.0000 0.0000 0.0000 0.0000 0.0000 0.0000 0.0000 0.0000 0.0000 0.0000 0.0000 0.0000 0.0000 0.0000 0.0000 0.0000 0.0000 0.0000 0.0000 0.0000 0.0000 0.0000 0.0000 0.0000 0.0000 0.0000 0.0000 0.0000 0.0000 0.0000 0.0000 0.0000 0.0000 0.0000 0.0000 0.0000 0.0000 0.0000 0.0000 0.0000 0.0000 0.0000 0.0000 0.0000 0.0000 0.0000 0.0000 0.0000 0.0000 0.0000 0.0000 0.0000 0.0000 0.0000 0.0000 0.0000 0.0000 0.0000 0.0000 0.0000 0.0000 0.0000 0.0000 0.0000 0.0000 0.0000 0.0000 0.0000 0.0000 0.0000 0.0000 0.0000 0.0000 0.0000 0.0000 0.0000 0.0000 0.0000 0.0000 0.0000 0.0000 0.0000 0.0000 0.0000 0.0000 0.0000 0.0000 0.0000 0.0000 0.0000 0.0000 0.0000 0.0000 0.0000 0.0000 0.0000 0.0000 0.0000 0.0000 0.0000 0.0000 0.0000 0.0000 0.0000 0.0000 0.0000 0.0000 0.0000 0.0000 0.0000 0.0000 0.0000 0.0000 0.0000 0.0000 0.0000 0.0000 0.0000 0.0000 0.0000 0.0000 0.0000 0.0000 0.0000 0.0000 0.0000 0.0000 0.0000 0.0000 0.0000 0.0000 0.0000 0.0000 0.0000 0.0000 0.0000 0.0000 0.0000 0.0000 0.0000 0.0000 0.0000 0.0000 0.0000 0.0000 0.0000 
0.0000 42.0084 0.0000 0.0000 0.0000 0.0000 0.0000 0.0000 0.0000 0.0000 0.0000 0.0000 0.0000 0.0000 0.0000 0.0000 0.0000 0.0000 0.0000 0.0000 0.0000 0.0000 0.0000 0.0000 0.0000 0.0000 0.0000 0.0000 0.0000 0.0000 0.0000 1.4321 0.0000 0.0000 -1.4321 0.0000 0.0000 0.0000 0.0000 0.0000 0.0000 0.0000 0.0000 0.0000 0.0000 0.0000 0.0000 0.0000 0.0000 0.0000 0.0000 0.0000 0.0000 0.0000 0.0000 0.0000 0.0000 0.0000 0.0000 0.0000 0.0000 0.0000 0.0000 0.0000 0.0000 0.0000 0.0000 0.0000 0.0000 0.0000 0.0000 0.0000 0.0000 0.0000 0.0000 0.0000 0.0000 0.0000 0.0000 0.0000 0.0000 0.0000 0.0000 0.0000 0.0000 0.0000 0.0000 0.0000 0.0000 0.0000 0.0000 0.0000 0.0000 0.0000 0.0000 0.0000 0.0000 0.0000 0.0000 0.0000 0.0000 0.0000 0.0000 0.0000 0.0000 0.0000 0.0000 0.0000 0.0000 0.0000 0.0000 0.0000 0.0000 0.0000 0.0000 0.0000 0.0000 0.0000 0.0000 0.0000 0.0000 0.0000 0.0000 0.0000 0.0000 0.0000 0.0000 0.0000 0.0000 0.0000 0.0000 0.0000 0.0000 0.0000 0.0000 0.0000 0.0000 0.0000 0.0000 0.0000 0.0000 0.0000 0.0000 0.0000 0.0000 0.0000 0.0000 0.0000 0.0000 0.0000 0.0000 0.0000 0.0000 0.0000 0.0000 0.0000 0.0000 0.0000 0.0000 0.0000 0.0000 0.0000 0.0000 0.0000 0.0000 0.0000 0.0000 0.0000 0.0000 0.0000 0.0000 5.9738 1.3206 -82.4441 0.0000 -13.1117 0.0000 0.5217 7.0158 0.9377 0.0000 0.0000 0.0000 6.1135 -1.3313 82.4264 0.0000 13.4050 0.0000 0.5118 -7.1691 -0.9175 0.0000 0.0000 0.0000 -0.0002 0.0000 0.0000 0.0000 0.0000 0.0000 0.0015 -0.0003 0.0000 -0.0031 0.0000 0.0000 0.0016 0.0003 0.0000 
0.0000 41.7778 -0.0718 0.0000 0.0000 0.0000 0.0000 0.0000 0.0000 0.0000 0.0000 0.0000 0.0000 0.0000 0.0000 0.0000 0.0000 0.0000 0.0000 0.0000 0.0000 0.0000 0.0000 0.0000 0.0000 0.0000 0.0000 0.0000 0.0000 0.0000 0.0000 1.4321 0.0000 0.0000 -1.4321 0.0000 0.0000 0.0000 0.0000 0.0000 0.0000 0.0000 0.0000 0.0000 0.0000 0.0000 0.0000 0.0000 0.0000 0.0000 0.0000 0.0000 0.0000 0.0000 0.0000 0.0000 0.0000 0.0000 0.0000 0.0000 0.0000 0.0000 0.0000 0.0000 0.0000 0.0000 0.0000 0.0000 0.0000 0.0000 0.0000 0.0000 0.0000 0.0000 0.0000 0.0000 0.0000 0.0000 0.0000 0.0000 0.0000 0.0000 0.0000 0.0000 0.0000 0.0000 0.0000 0.0000 0.0000 0.0000 0.0000 0.0000 0.0000 0.0000 0.0000 0.0000 0.0000 0.0000 0.0000 0.0000 0.0000 0.0000 0.0000 0.0000 0.0000 0.0000 0.0000 0.0000 0.0000 0.0000 0.0000 0.0000 0.0000 0.0000 0.0000 0.0000 0.0000 0.0000 0.0000 0.0000 0.0000 0.0000 0.0000 0.0000 0.0000 0.0000 0.0000 0.0000 0.0000 0.0000 0.0000 0.0000 0.0000 0.0000 0.0000 0.0000 0.0000 0.0000 0.0000 0.0000 0.0000 0.0000 0.0000 0.0000 0.0000 0.0000 0.0000 0.0000 0.0000 0.0000 0.0000 0.0000 0.0000 0.0000 0.0000 0.0000 0.0000 0.0000 0.0000 0.0000 0.0000 0.0000 0.0000 0.0000 0.0000 0.0000 0.0000 0.0000 0.0000 0.0000 0.0000 6.6780 1.2777 -82.6257 0.0000 -15.0370 0.0000 1.0740 7.9601 0.9806 0.0000 0.0000 0.0000 6.8823 -0.7786 82.5283 0.0000 15.2676 0.0000 0.5371 -8.0035 -0.8725 -5.2359 -0.2578 -0.0316 10.6911 0.0000 0.0000 -4.6023 0.2597 0.0041 -5.2356 0.2284 0.0149 10.6869 0.0323 0.0284 -4.5986 -0.2586 -0.0216 
0.0000 41.1197 -0.2767 0.0000 0.0000 0.0000 0.0000 0.0000 0.0000 0.0000 0.0000 0.0000 0.0000 0.0000 0.0000 0.0000 0.0000 0.0000 0.0000 0.0000 0.0000 0.0000 0.0000 0.0000 0.0000 0.0000 0.0000 0.0000 0.0000 0.0000 0.0000 1.4321 0.0000 0.0000 -1.4321 0.0000 0.0000 0.0000 0.0000 0.0000 0.0000 0.0000 0.0000 0.0000 0.0000 0.0000 0.0000 0.0000 0.0000 0.0000 0.0000 0.0000 0.0000 0.0000 0.0000 0.0000 0.0000 0.0000 0.0000 0.0000 0.0000 0.0000 0.0000 0.0000 0.0000 0.0000 0.0000 0.0000 0.0000 0.0000 0.0000 0.0000 0.0000 0.0000 0.0000 0.0000 0.0000 0.0000 0.0000 0.0000 0.0000 0.0000 0.0000 0.0000 0.0000 0.0000 0.0000 0.0000 0.0000 0.0000 0.0000 0.0000 0.0000 0.0000 0.0000 0.0000 0.0000 0.0000 0.0000 0.0000 0.0000 0.0000 0.0000 0.0000 0.0000 0.0000 0.0000 0.0000 0.0000 0.0000 0.0000 0.0000 0.0000 0.0000 0.0000 0.0000 0.0000 0.0000 0.0000 0.0000 0.0000 0.0000 0.0000 0.0000 0.0000 0.0000 0.0000 0.0000 0.0000 0.0000 0.0000 0.0000 0.0000 0.0000 0.0000 0.0000 0.0000 0.0000 0.0000 0.0000 0.0000 0.0000 0.0000 0.0000 0.0000 0.0000 0.0000 0.0000 0.0000 0.0000 0.0000 0.0000 0.0000 0.0000 0.0000 0.0000 0.0000 0.0000 0.0000 0.0000 0.0000 0.0000 0.0000 0.0000 0.0000 0.0000 0.0000 0.0000 0.0000 0.0000 0.0000 8.1890 0.9929 -83.1093 0.0000 -19.4365 0.0000 2.6125 10.0742 1.0236 0.0000 0.0000 0.0000 8.6007 0.8956 82.7199 0.0000 19.5660 0.0000 0.6113 -9.8311 -0.7400 -11.6334 -0.5624 -0.1332 23.6905 0.0000 0.0000 -8.7237 0.5777 -0.0166 -11.6358 0.4903 0.0907 23.6871 0.0777 0.0542 -8.7181 -0.5657 -0.0264 
0.0000 40.0842 -0.5991 0.0000 0.0000 0.0000 0.0000 0.0000 0.0000 0.0000 0.0000 0.0000 0.0000 0.0000 0.0000 0.0000 0.0000 0.0000 0.0000 0.0000 0.0000 0.0000 0.0000 0.0000 0.0000 0.0000 0.0000 0.0000 0.0000 0.0000 0.0000 1.4321 0.0000 0.0000 -1.4321 0.0000 0.0000 0.0000 0.0000 0.0000 0.0000 0.0000 0.0000 0.0000 0.0000 0.0000 0.0000 0.0000 0.0000 0.0000 0.0000 0.0000 0.0000 0.0000 0.0000 0.0000 0.0000 0.0000 0.0000 0.0000 0.0000 0.0000 0.0000 0.0000 0.0000 0.0000 0.0000 0.0000 0.0000 0.0000 0.0000 0.0000 0.0000 0.0000 0.0000 0.0000 0.0000 0.0000 0.0000 0.0000 0.0000 0.0000 0.0000 0.0000 0.0000 0.0000 0.0000 0.0000 0.0000 0.0000 0.0000 0.0000 0.0000 0.0000 0.0000 0.0000 0.0000 0.0000 0.0000 0.0000 0.0000 0.0000 0.0000 0.0000 0.0000 0.0000 0.0000 0.0000 0.0000 0.0000 0.0000 0.0000 0.0000 0.0000 0.0000 0.0000 0.0000 0.0000 0.0000 0.0000 0.0000 0.0000 0.0000 0.0000 0.0000 0.0000 0.0000 0.0000 0.0000 0.0000 0.0000 0.0000 0.0000 0.0000 0.0000 0.0000 0.0000 0.0000 0.0000 0.0000 0.0000 0.0000 0.0000 0.0000 0.0000 0.0000 0.0000 0.0000 0.0000 0.0000 0.0000 0.0000 0.0000 0.0000 0.0000 0.0000 0.0000 0.0000 0.0000 0.0000 0.0000 0.0000 0.0000 0.0000 0.0000 0.0000 0.0000 0.0000 0.0000 0.0000 0.0000 9.7604 0.1817 -83.7722 0.0000 -24.6301 0.0000 4.9195 12.5060 0.9266 0.0000 0.0000 0.0000 10.5151 3.7127 82.7969 0.0000 24.7158 0.0000 0.7356 -11.8479 -0.5135 -17.8863 -0.8546 -0.3022 36.3130 0.0000 0.0000 -11.0506 0.9018 -0.0915 -17.8922 0.7354 0.2265 36.3106 0.1263 0.0689 -11.0430 -0.8725 0.0173 
0.0000 38.7218 -1.0233 0.0000 0.0000 0.0000 0.0000 0.0000 0.0000 0.0000 0.0000 0.0000 0.0000 0.0000 0.0000 0.0000 0.0000 0.0000 0.0000 0.0000 0.0000 0.0000 0.0000 0.0000 0.0000 0.0000 0.0000 0.0000 0.0000 0.0000 0.0000 1.4321 0.0000 0.0000 -1.4321 0.0000 0.0000 0.0000 0.0000 0.0000 0.0000 0.0000 0.0000 0.0000 0.0000 0.0000 0.0000 0.0000 0.0000 0.0000 0.0000 0.0000 0.0000 0.0000 0.0000 0.0000 0.0000 0.0000 0.0000 0.0000 0.0000 0.0000 0.0000 0.0000 0.0000 0.0000 0.0000 0.0000 0.0000 0.0000 0.0000 0.0000 0.0000 0.0000 0.0000 0.0000 0.0000 0.0000 0.0000 0.0000 0.0000 0.0000 0.0000 0.0000 0.0000 0.0000 0.0000 0.0000 0.0000 0.0000 0.0000 0.0000 0.0000 0.0000 0.0000 0.0000 0.0000 0.0000 0.0000 0.0000 0.0000 0.0000 0.0000 0.0000 0.0000 0.0000 0.0000 0.0000 0.0000 0.0000 0.0000 0.0000 0.0000 0.0000 0.0000 0.0000 0.0000 0.0000 0.0000 0.0000 0.0000 0.0000 0.0000 0.0000 0.0000 0.0000 0.0000 0.0000 0.0000 0.0000 0.0000 0.0000 0.0000 0.0000 0.0000 0.0000 0.0000 0.0000 0.0000 0.0000 0.0000 0.0000 0.0000 0.0000 0.0000 0.0000 0.0000 0.0000 0.0000 0.0000 0.0000 0.0000 0.0000 0.0000 0.0000 0.0000 0.0000 0.0000 0.0000 0.0000 0.0000 0.0000 0.0000 0.0000 0.0000 0.0000 0.0000 0.0000 0.0000 0.0000 0.0000 11.0568 -1.4059 -84.4636 0.0000 -29.8324 0.0000 7.7472 14.8707 0.5978 0.0000 0.0000 0.0000 12.2747 7.6327 82.5788 0.0000 29.9558 0.0000 0.9173 -13.6710 -0.1744 -23.9407 -1.1345 -0.5380 48.4435 0.0000 0.0000 -11.5454 1.2302 -0.2510 -23.9502 0.9667 0.4215 48.4424 0.1750 0.0726 -11.5357 -1.1830 0.1374 
